<svg width="513" height="532" viewBox="0 0 513 532" fill="none" xmlns="http://www.w3.org/2000/svg">
    <path fill-rule="evenodd" clip-rule="evenodd"
        d="M76.3772 0H436.623C477.399 0 510.454 33.0185 510.454 73.7488V232.907C511.937 233.431 513 234.844 513 236.505V342.042C513 343.703 511.937 345.116 510.454 345.639V989.251C510.454 1029.98 477.399 1063 436.623 1063H76.3772C35.6013 1063 2.54591 1029.98 2.54591 989.251V362.169C1.06267 361.646 0 360.233 0 358.572V297.538C0 295.877 1.06267 294.464 2.54591 293.941V270.619C1.06267 270.095 0 268.682 0 267.022V205.988C0 204.327 1.06267 202.914 2.54591 202.391V171.44C1.06267 170.916 0 169.503 0 167.842V136.054C0 134.393 1.06267 132.98 2.54591 132.456V73.7488C2.54591 33.0185 35.6013 0 76.3772 0Z"
        fill="#25272A" />
</svg>