<svg width="2509" height="512" viewBox="0 0 2509 512" fill="none" xmlns="http://www.w3.org/2000/svg">
<g clip-path="url(#clip0)">
<g clip-path="url(#clip1)">
<circle cx="256" cy="256" r="256" fill="url(#paint0_linear)"/>
<circle cx="256" cy="256" r="218" stroke="white" stroke-width="12"/>
<path d="M333.6 334.4C333.6 330.4 330.4 330.4 327.6 330.4C322.8 330.4 322.4 330.8 320 339.6C314.8 360 307.2 387.2 289.6 387.2C278.8 387.2 278 378 278 370C278 360.8 280.8 349.6 281.2 347.6C283.2 339.2 283.2 338.8 283.2 333.6C283.2 306.4 255.2 295.6 230 292C239.2 286.4 247.6 278 258.4 265.6C279.2 242 294.8 223.6 314.8 223.6C322.4 223.6 325.6 228.4 325.6 228.4C308.8 231.2 306.8 245.2 306.8 248.4C306.8 253.6 310.4 261.2 320.8 261.2C329.6 261.2 340.8 254 340.8 238.8C340.8 228.4 333.6 214.8 315.6 214.8C294.4 214.8 277.2 231.6 263.6 247.6C240.8 274 234.4 280.4 220.4 287.2L261.2 124C261.6 122.8 262.4 118.8 262.4 118.8C262.4 115.2 260 114 256.8 114C255.6 114 251.6 114.4 250.4 114.8L210.8 118C206 118.4 201.6 118.8 201.6 126.4C201.6 130.8 205.6 130.8 211.2 130.8C230.4 130.8 231.2 133.6 231.2 137.6C231.2 138.8 230 144.4 230 144.4L170.8 380.4C170.4 381.2 170 385.6 170 385.6C170 390 173.6 396 181.2 396C193.2 396 196 384.8 196.8 381.2L217.2 300C232 302 257.6 310.4 257.6 333.6C257.6 336.4 257.6 338 256.4 343.6C254.8 350.4 254.8 353.2 254.8 357.2C254.8 386 273.6 396 288.4 396C306 396 314.8 382.8 319.2 375.2C328 360 333.6 335.6 333.6 334.4Z" fill="white"/>
</g>
<path d="M830.8 358.8C835.333 363.067 837.6 367.733 837.6 372.8C837.6 377.867 835.6 382.267 831.6 386C827.867 389.733 823.467 391.6 818.4 391.6C813.333 391.6 808.667 389.467 804.4 385.2L662 256.8V371.2C662 377.6 660.133 382.667 656.4 386.4C652.933 390.133 647.867 392 641.2 392C635.067 392 630.133 390.133 626.4 386.4C622.667 382.667 620.8 377.6 620.8 371.2V126.8C620.8 120.667 622.667 115.733 626.4 112C630.133 108 635.067 106 641.2 106C647.6 106 652.667 107.867 656.4 111.6C660.133 115.333 662 120.4 662 126.8V236.4L798.4 112C802.133 108.267 806.533 106.4 811.6 106.4C816.667 106.4 821.067 108.267 824.8 112C828.533 115.733 830.4 120 830.4 124.8C830.4 129.867 828.133 134.533 823.6 138.8L704.4 245.2L830.8 358.8ZM955.488 392.8C936.288 392.8 919.354 388.667 904.688 380.4C890.288 372.133 879.088 360.4 871.088 345.2C863.354 329.733 859.488 311.867 859.488 291.6C859.488 271.067 863.354 253.2 871.088 238C879.088 222.533 890.288 210.667 904.688 202.4C919.354 194.133 936.288 190 955.488 190C974.688 190 991.488 194.133 1005.89 202.4C1020.55 210.667 1031.75 222.533 1039.49 238C1047.49 253.2 1051.49 271.067 1051.49 291.6C1051.49 311.867 1047.49 329.733 1039.49 345.2C1031.75 360.4 1020.55 372.133 1005.89 380.4C991.488 388.667 974.688 392.8 955.488 392.8ZM955.488 360.8C973.354 360.8 986.954 354.933 996.288 343.2C1005.89 331.467 1010.69 314.267 1010.69 291.6C1010.69 269.2 1005.89 252.133 996.288 240.4C986.688 228.4 973.088 222.4 955.488 222.4C937.888 222.4 924.288 228.4 914.688 240.4C905.088 252.133 900.288 269.2 900.288 291.6C900.288 314.267 904.954 331.467 914.288 343.2C923.888 354.933 937.621 360.8 955.488 360.8ZM1198.87 190.8C1211.67 190 1218.07 195.467 1218.07 207.2C1218.07 213.067 1216.6 217.467 1213.67 220.4C1210.74 223.333 1205.67 225.067 1198.47 225.6L1186.47 226.8C1169.67 228.4 1157.14 234.267 1148.87 244.4C1140.87 254.533 1136.87 266.8 1136.87 281.2V372.8C1136.87 379.2 1135 384 1131.27 387.2C1127.54 390.4 1122.74 392 1116.87 392C1111 392 1106.07 390.4 1102.07 387.2C1098.34 384 1096.47 379.2 1096.47 372.8V210C1096.47 203.867 1098.34 199.2 1102.07 196C1106.07 192.533 1111 190.8 1116.87 190.8C1122.2 190.8 1126.6 192.533 1130.07 196C1133.8 199.2 1135.67 203.733 1135.67 209.6V228.8C1141 217.067 1148.74 208.133 1158.87 202C1169 195.867 1180.47 192.267 1193.27 191.2L1198.87 190.8ZM1323.85 392.8C1304.65 392.8 1287.71 388.667 1273.05 380.4C1258.65 372.133 1247.45 360.4 1239.45 345.2C1231.71 329.733 1227.85 311.867 1227.85 291.6C1227.85 271.067 1231.71 253.2 1239.45 238C1247.45 222.533 1258.65 210.667 1273.05 202.4C1287.71 194.133 1304.65 190 1323.85 190C1343.05 190 1359.85 194.133 1374.25 202.4C1388.91 210.667 1400.11 222.533 1407.85 238C1415.85 253.2 1419.85 271.067 1419.85 291.6C1419.85 311.867 1415.85 329.733 1407.85 345.2C1400.11 360.4 1388.91 372.133 1374.25 380.4C1359.85 388.667 1343.05 392.8 1323.85 392.8ZM1323.85 360.8C1341.71 360.8 1355.31 354.933 1364.65 343.2C1374.25 331.467 1379.05 314.267 1379.05 291.6C1379.05 269.2 1374.25 252.133 1364.65 240.4C1355.05 228.4 1341.45 222.4 1323.85 222.4C1306.25 222.4 1292.65 228.4 1283.05 240.4C1273.45 252.133 1268.65 269.2 1268.65 291.6C1268.65 314.267 1273.31 331.467 1282.65 343.2C1292.25 354.933 1305.98 360.8 1323.85 360.8ZM1532.83 392.8C1505.63 392.8 1483.36 387.2 1466.03 376C1461.23 373.067 1457.76 370 1455.63 366.8C1453.76 363.6 1452.83 360 1452.83 356C1452.83 351.733 1454.03 348.133 1456.43 345.2C1458.83 342.267 1461.89 340.8 1465.63 340.8C1469.09 340.8 1474.56 342.933 1482.03 347.2C1490.03 351.467 1497.76 354.933 1505.23 357.6C1512.96 360.267 1522.56 361.6 1534.03 361.6C1546.83 361.6 1556.83 359.333 1564.03 354.8C1571.23 350.267 1574.83 343.867 1574.83 335.6C1574.83 330.267 1573.36 326 1570.43 322.8C1567.76 319.6 1562.96 316.8 1556.03 314.4C1549.09 311.733 1538.83 308.933 1525.23 306C1501.76 300.933 1484.83 294.133 1474.43 285.6C1464.29 276.8 1459.23 264.933 1459.23 250C1459.23 238.533 1462.56 228.267 1469.23 219.2C1475.89 209.867 1485.09 202.667 1496.83 197.6C1508.56 192.533 1521.89 190 1536.83 190C1547.49 190 1557.89 191.467 1568.03 194.4C1578.16 197.067 1587.09 201.067 1594.83 206.4C1603.63 212.267 1608.03 219.067 1608.03 226.8C1608.03 231.067 1606.69 234.667 1604.03 237.6C1601.63 240.533 1598.69 242 1595.23 242C1592.83 242 1590.43 241.467 1588.03 240.4C1585.63 239.333 1582.43 237.6 1578.43 235.2C1571.23 230.933 1564.43 227.6 1558.03 225.2C1551.89 222.8 1544.16 221.6 1534.83 221.6C1523.63 221.6 1514.56 224 1507.63 228.8C1500.96 233.6 1497.63 240.133 1497.63 248.4C1497.63 255.867 1500.69 261.733 1506.83 266C1513.23 270 1525.09 273.867 1542.43 277.6C1560.29 281.333 1574.29 285.6 1584.43 290.4C1594.56 295.2 1601.76 301.2 1606.03 308.4C1610.56 315.333 1612.83 324.267 1612.83 335.2C1612.83 352.533 1605.49 366.533 1590.83 377.2C1576.43 387.6 1557.09 392.8 1532.83 392.8ZM1920.27 203.2C1923.21 195.2 1928.67 191.2 1936.67 191.2C1941.74 191.2 1946.27 192.933 1950.27 196.4C1954.27 199.867 1956.27 204.133 1956.27 209.2C1956.27 211.867 1955.74 214.267 1954.67 216.4L1888.27 378.4C1886.67 382.667 1884.01 386 1880.27 388.4C1876.54 390.533 1872.41 391.6 1867.87 391.6C1863.61 391.6 1859.61 390.533 1855.87 388.4C1852.14 386 1849.47 382.667 1847.87 378.4L1795.87 250L1745.07 378.4C1743.47 382.667 1740.81 386 1737.07 388.4C1733.61 390.533 1729.61 391.6 1725.07 391.6C1720.81 391.6 1716.67 390.533 1712.67 388.4C1708.94 386 1706.14 382.667 1704.27 378.4L1638.27 216.4C1637.21 214.267 1636.67 212 1636.67 209.6C1636.67 204.267 1638.81 199.867 1643.07 196.4C1647.61 192.933 1652.54 191.2 1657.87 191.2C1665.87 191.2 1671.34 195.067 1674.27 202.8L1725.87 339.2L1778.67 204C1780.27 199.733 1782.81 196.533 1786.27 194.4C1789.74 192.267 1793.47 191.2 1797.47 191.2C1801.21 191.2 1804.81 192.267 1808.27 194.4C1811.74 196.533 1814.27 199.733 1815.87 204L1868.67 338.4L1920.27 203.2ZM2072.61 190C2098.48 190 2117.68 196.533 2130.21 209.6C2143.01 222.667 2149.41 242.533 2149.41 269.2V372.8C2149.41 378.933 2147.68 383.733 2144.21 387.2C2140.74 390.4 2135.94 392 2129.81 392C2123.94 392 2119.28 390.267 2115.81 386.8C2112.34 383.333 2110.61 378.667 2110.61 372.8V358C2105.54 369.2 2097.94 377.867 2087.81 384C2077.94 389.867 2066.34 392.8 2053.01 392.8C2040.21 392.8 2028.48 390.267 2017.81 385.2C2007.41 379.867 1999.14 372.667 1993.01 363.6C1986.88 354.533 1983.81 344.267 1983.81 332.8C1983.54 318.4 1987.14 307.2 1994.61 299.2C2002.08 290.933 2014.21 285.067 2031.01 281.6C2047.81 277.867 2071.14 276 2101.01 276H2110.21V264.4C2110.21 249.467 2107.14 238.667 2101.01 232C2094.88 225.333 2085.01 222 2071.41 222C2062.08 222 2053.28 223.2 2045.01 225.6C2036.74 228 2027.68 231.467 2017.81 236C2010.61 240 2005.54 242 2002.61 242C1998.61 242 1995.28 240.533 1992.61 237.6C1990.21 234.667 1989.01 230.933 1989.01 226.4C1989.01 222.4 1990.08 218.933 1992.21 216C1994.61 212.8 1998.34 209.733 2003.41 206.8C2012.74 201.733 2023.68 197.733 2036.21 194.8C2048.74 191.6 2060.88 190 2072.61 190ZM2060.21 362.8C2074.88 362.8 2086.88 357.867 2096.21 348C2105.54 337.867 2110.21 324.933 2110.21 309.2V298.8H2103.01C2082.21 298.8 2066.21 299.733 2055.01 301.6C2043.81 303.467 2035.81 306.667 2031.01 311.2C2026.21 315.467 2023.81 321.733 2023.81 330C2023.81 339.6 2027.28 347.467 2034.21 353.6C2041.14 359.733 2049.81 362.8 2060.21 362.8ZM2309.47 190C2326.27 190 2341.21 194.267 2354.27 202.8C2367.61 211.333 2377.87 223.333 2385.07 238.8C2392.54 254.267 2396.27 272.133 2396.27 292.4C2396.27 312.4 2392.67 330 2385.47 345.2C2378.27 360.4 2368.01 372.133 2354.67 380.4C2341.61 388.667 2326.54 392.8 2309.47 392.8C2294.81 392.8 2281.87 389.733 2270.67 383.6C2259.47 377.2 2250.94 368.133 2245.07 356.4V445.6C2245.07 451.2 2243.21 455.6 2239.47 458.8C2236.01 462.267 2231.34 464 2225.47 464C2219.34 464 2214.27 462.267 2210.27 458.8C2206.54 455.333 2204.67 450.667 2204.67 444.8V210.4C2204.67 204.533 2206.54 199.867 2210.27 196.4C2214.01 192.667 2218.94 190.8 2225.07 190.8C2230.94 190.8 2235.74 192.667 2239.47 196.4C2243.21 199.867 2245.07 204.533 2245.07 210.4V226.8C2250.94 215.067 2259.47 206 2270.67 199.6C2281.87 193.2 2294.81 190 2309.47 190ZM2299.87 360.8C2317.47 360.8 2331.07 354.933 2340.67 343.2C2350.27 331.2 2355.07 314.267 2355.07 292.4C2355.07 270.267 2350.14 253.067 2340.27 240.8C2330.67 228.533 2317.21 222.4 2299.87 222.4C2282.27 222.4 2268.67 228.4 2259.07 240.4C2249.74 252.4 2245.07 269.467 2245.07 291.6C2245.07 313.733 2249.74 330.8 2259.07 342.8C2268.67 354.8 2282.27 360.8 2299.87 360.8Z" fill="white"/>
</g>
<defs>
<linearGradient id="paint0_linear" x1="104" y1="44" x2="432" y2="439" gradientUnits="userSpaceOnUse">
<stop stop-color="#D841F5"/>
<stop offset="1" stop-color="#0F0CB4"/>
</linearGradient>
<clipPath id="clip0">
<rect width="2509" height="512" fill="white"/>
</clipPath>
<clipPath id="clip1">
<rect width="512" height="512" fill="white"/>
</clipPath>
</defs>
</svg>
